<?xml version="1.0" standalone="no"?>
<!DOCTYPE svg PUBLIC "-//W3C//DTD SVG 20010904//EN"
 "http://www.w3.org/TR/2001/REC-SVG-20010904/DTD/svg10.dtd">
<svg version="1.0" xmlns="http://www.w3.org/2000/svg"
 width="200.000000pt" height="200.000000pt" viewBox="0 0 200.000000 200.000000"
 preserveAspectRatio="xMidYMid meet">
<metadata>
Created by potrace 1.14, written by Peter Selinger 2001-2017
</metadata>
<g transform="translate(0.000000,200.000000) scale(0.100000,-0.100000)"
fill="#000000" stroke="none">
<path d="M356 1350 c-93 -36 -154 -119 -163 -220 -9 -92 35 -188 104 -231 23
-15 33 -27 29 -38 -20 -65 -23 -61 32 -61 l49 0 -39 -75 c-22 -41 -37 -75 -35
-75 3 0 38 33 79 73 41 39 101 96 134 126 32 29 72 65 88 80 16 14 40 50 54
80 62 134 -16 303 -159 345 -68 21 -113 19 -173 -4z m197 -416 c0 -5 -15 -15
-33 -22 l-31 -13 18 24 c17 23 50 31 46 11z"/>
<path d="M929 1308 c0 -2 -2 -11 -4 -20 -2 -9 -8 -40 -14 -68 -13 -61 -4 -80
39 -80 37 0 62 30 58 72 -2 27 -8 34 -29 36 -22 3 -25 7 -21 32 3 23 0 30 -12
30 -9 0 -16 -1 -17 -2z m41 -113 c0 -16 -6 -25 -16 -25 -11 0 -14 5 -10 16 3
9 6 20 6 25 0 5 5 9 10 9 6 0 10 -11 10 -25z"/>
<path d="M1296 1298 c-28 -90 -32 -154 -11 -162 19 -7 51 24 35 34 -10 6 -10
18 6 108 5 25 3 32 -10 32 -9 0 -18 -6 -20 -12z"/>
<path d="M798 1270 c-5 -14 -18 -49 -28 -77 -18 -52 -18 -53 0 -53 11 0 23 8
28 17 14 24 42 25 42 2 0 -12 7 -19 20 -19 18 0 20 7 20 80 l0 81 -36 -3 c-28
-2 -38 -8 -46 -28z m38 -68 c-12 -12 -18 8 -10 35 l8 28 4 -28 c2 -16 1 -31
-2 -35z"/>
<path d="M1503 1273 c-11 -4 -17 -24 -27 -88 -5 -28 12 -45 45 -45 35 0 72 42
42 49 -9 2 -19 -2 -21 -8 -6 -19 -28 -12 -29 9 -2 20 0 22 39 24 27 1 38 34
11 33 -38 0 -45 3 -39 18 5 15 1 17 -21 8z"/>
<path d="M1048 1239 c-19 -11 -25 -49 -8 -49 6 0 10 -4 10 -10 0 -5 -7 -10
-15 -10 -20 0 -19 -16 1 -24 33 -13 73 -6 84 14 13 25 5 40 -20 40 -10 0 -22
5 -25 10 -4 7 2 9 19 4 33 -8 51 3 35 22 -13 16 -56 18 -81 3z m39 -65 c-3 -3
-12 -4 -19 -1 -8 3 -5 6 6 6 11 1 17 -2 13 -5z"/>
<path d="M1173 1235 c-24 -17 -36 -64 -21 -82 12 -15 56 -17 76 -5 7 5 16 23
21 40 16 53 -29 80 -76 47z m43 -41 c2 -15 -22 -31 -32 -21 -3 3 0 15 6 27 12
23 22 20 26 -6z"/>
<path d="M1345 1206 c-4 -24 -4 -49 -1 -55 10 -15 108 -9 114 7 2 6 -1 12 -6
12 -6 0 -8 17 -5 39 5 34 3 39 -12 37 -11 -2 -20 -13 -22 -27 -8 -60 -35 -71
-31 -12 2 29 -1 38 -14 41 -13 2 -18 -7 -23 -42z"/>
<path d="M1609 1229 c-14 -14 -19 -30 -17 -52 3 -28 7 -32 36 -35 33 -3 62 11
62 30 0 6 -13 8 -30 5 -17 -4 -30 -2 -30 3 0 6 16 10 35 10 27 0 35 4 35 18 0
43 -56 56 -91 21z m51 -19 c0 -5 -7 -10 -16 -10 -8 0 -12 5 -9 10 3 6 10 10
16 10 5 0 9 -4 9 -10z"/>
<path d="M1145 1065 c-28 -138 -29 -145 -7 -145 15 0 21 9 26 40 6 37 25 56
27 28 1 -7 2 -24 2 -38 2 -17 9 -26 23 -28 19 -3 21 1 20 40 -3 55 -11 69 -40
64 -22 -4 -23 -2 -16 30 7 29 5 34 -11 34 -12 0 -21 -9 -24 -25z"/>
<path d="M1535 1078 c-3 -12 -10 -50 -22 -121 -5 -29 14 -44 43 -33 13 5 14 9
5 20 -7 8 -9 26 -6 42 17 79 17 104 1 104 -9 0 -18 -6 -21 -12z"/>
<path d="M793 1052 c-11 -7 -20 -34 -27 -78 -5 -32 12 -54 43 -54 25 0 61 26
61 43 0 12 -38 7 -42 -5 -7 -19 -27 0 -21 21 3 12 13 18 31 17 18 -1 28 5 30
17 3 13 -3 17 -27 17 -23 0 -29 4 -25 15 7 16 -4 19 -23 7z"/>
<path d="M909 1020 c-20 -12 -32 -54 -24 -81 11 -33 95 -21 95 14 0 5 -13 6
-30 2 -19 -4 -30 -3 -30 4 0 6 16 11 35 11 36 0 42 10 29 44 -7 18 -50 21 -75
6z m41 -24 c0 -2 -7 -7 -16 -10 -8 -3 -12 -2 -9 4 6 10 25 14 25 6z"/>
<path d="M1028 1019 c-23 -13 -35 -78 -17 -90 20 -13 63 -11 77 3 21 21 13 31
-18 25 -25 -5 -30 -3 -30 13 0 25 17 34 28 15 11 -20 42 -9 42 15 0 28 -48 40
-82 19z"/>
<path d="M1266 998 c-10 -51 -7 -78 9 -78 8 0 17 12 21 28 14 64 27 68 28 9 1
-25 6 -33 22 -35 20 -3 22 1 19 45 -2 26 -4 51 -4 55 -1 4 -21 7 -45 6 -41 0
-44 -3 -50 -30z"/>
<path d="M1407 1013 c-18 -21 -25 -62 -14 -80 5 -7 21 -13 36 -13 15 0 35 6
44 13 20 15 30 66 15 84 -15 19 -62 16 -81 -4z m50 -29 c4 -15 -14 -37 -25
-30 -13 8 -3 48 11 43 6 -2 12 -7 14 -13z"/>
<path d="M1599 1009 c-14 -14 -19 -30 -17 -52 3 -28 7 -32 36 -35 40 -4 59 9
67 49 12 56 -43 81 -86 38z m48 -43 c-4 -9 -11 -16 -17 -16 -11 0 -14 33 -3
44 11 10 26 -11 20 -28z"/>
<path d="M1728 1019 c-22 -12 -36 -78 -19 -88 9 -6 8 -11 -3 -20 -21 -18 -3
-51 27 -51 41 0 57 22 71 96 l13 72 -36 0 c-20 0 -44 -4 -53 -9z m38 -54 c-3
-8 -10 -15 -16 -15 -14 0 -12 37 3 43 15 5 21 -8 13 -28z m-8 -57 c-2 -6 -10
-14 -16 -16 -7 -2 -10 2 -6 12 7 18 28 22 22 4z"/>
<path d="M1834 1003 c-3 -16 -8 -34 -10 -41 -2 -7 1 -22 6 -33 8 -13 7 -19 0
-19 -6 0 -10 -10 -8 -22 2 -19 9 -23 38 -23 30 0 37 5 52 35 9 19 19 56 23 83
5 38 3 47 -9 47 -18 0 -23 -8 -30 -44 -3 -16 -8 -31 -11 -34 -12 -13 -23 22
-15 49 7 25 6 29 -11 29 -12 0 -21 -9 -25 -27z m42 -110 c-10 -10 -19 5 -10
18 6 11 8 11 12 0 2 -7 1 -15 -2 -18z"/>
</g>
</svg>
